<?xml version="1.0" encoding="UTF-8" standalone="no"?>
<svg width="114px" height="111px" viewBox="0 0 114 111" version="1.1" xmlns="http://www.w3.org/2000/svg" xmlns:xlink="http://www.w3.org/1999/xlink" xmlns:sketch="http://www.bohemiancoding.com/sketch/ns">
    <!-- Generator: Sketch 3.4.4 (17249) - http://www.bohemiancoding.com/sketch -->
    <title>Group</title>
    <desc>Created with Sketch.</desc>
    <defs></defs>
    <g id="Page-1" stroke="none" stroke-width="1" fill="none" fill-rule="evenodd" sketch:type="MSPage">
        <g id="Group" sketch:type="MSLayerGroup">
            <path d="M47.4555752,7.26638951 C29.9355752,9.88338951 10.1265752,25.2613895 7.25157521,49.6403895 C5.59357521,63.7033895 9.46457521,76.2533895 18.5975752,87.0383895 C27.6595752,97.7423895 39.4305752,103.39439 53.4455752,104.61339 L53.4455752,110.43439 C35.8825752,109.01839 21.5275752,101.73839 11.4725752,87.4003895 C-1.83642479,68.4203895 -2.89142479,48.1643895 8.53557521,28.0373895 C18.2475752,10.9303895 33.7475752,2.22038951 53.4075752,0.410389512 L53.4075752,18.8493895 C31.5055752,21.4773895 19.1145752,39.3763895 19.6325752,56.3783895 C20.2345752,76.1433895 35.6655752,88.4953895 47.6855752,90.7153895 C47.6855752,88.6223895 47.8135752,86.5723895 47.6045752,84.5563895 C47.5445752,83.9743895 46.6005752,83.2853895 45.9145752,82.9973895 C35.6105752,78.6893895 29.2765752,71.1393895 27.2105752,60.1333895 C24.2635752,44.4353895 36.4085752,27.9983895 52.1155752,26.3613895 C52.4965752,26.3223895 52.8855752,26.3563895 53.4285752,26.3563895 L53.4285752,31.8043895 C39.7285752,35.8583895 32.5065752,44.1873895 32.6715752,55.6463895 C32.8375752,67.1153895 40.1285752,75.3963895 53.4115752,79.0623895 L53.4115752,97.7373895 C43.3175752,96.9273895 34.5955752,93.2943895 27.4275752,86.4683895 C15.4355752,75.0473895 11.0335752,60.9783895 15.1605752,44.9703895 C19.2555752,29.0813895 29.8605752,18.9943895 45.6515752,14.4953895 C47.2695752,14.0343895 47.9135752,13.3913895 47.7205752,11.7263895 C47.5745752,10.4633895 47.6735752,9.17138951 47.6505752,7.89238951 C47.6475752,7.74338951 47.5605752,7.59438951 47.4555752,7.26638951" id="Fill-1" fill="#3EB991" sketch:type="MSShapeGroup"></path>
            <path d="M107.455575,7.26638951 C89.9355752,9.88338951 70.1265752,25.2613895 67.2515752,49.6403895 C65.5935752,63.7033895 69.4645752,76.2533895 78.5975752,87.0383895 C87.6595752,97.7423895 99.4305752,103.39439 113.445575,104.61339 L113.445575,110.43439 C95.8825752,109.01839 81.5275752,101.73839 71.4725752,87.4003895 C58.1635752,68.4203895 57.1085752,48.1643895 68.5355752,28.0373895 C78.2475752,10.9303895 93.7475752,2.22038951 113.407575,0.410389512 L113.407575,18.8493895 C91.5055752,21.4773895 79.1145752,39.3763895 79.6325752,56.3783895 C80.2345752,76.1433895 95.6655752,88.4953895 107.685575,90.7153895 C107.685575,88.6223895 107.813575,86.5723895 107.604575,84.5563895 C107.544575,83.9743895 106.600575,83.2853895 105.914575,82.9973895 C95.6105752,78.6893895 89.2765752,71.1393895 87.2105752,60.1333895 C84.2635752,44.4353895 96.4085752,27.9983895 112.115575,26.3613895 C112.496575,26.3223895 112.885575,26.3563895 113.428575,26.3563895 L113.428575,31.8043895 C99.7285752,35.8583895 92.5065752,44.1873895 92.6715752,55.6463895 C92.8375752,67.1153895 100.128575,75.3963895 113.411575,79.0623895 L113.411575,97.7373895 C103.317575,96.9273895 94.5955752,93.2943895 87.4275752,86.4683895 C75.4355752,75.0473895 71.0335752,60.9783895 75.1605752,44.9703895 C79.2555752,29.0813895 89.8605752,18.9943895 105.651575,14.4953895 C107.269575,14.0343895 107.913575,13.3913895 107.720575,11.7263895 C107.574575,10.4633895 107.673575,9.17138951 107.650575,7.89238951 C107.647575,7.74338951 107.560575,7.59438951 107.455575,7.26638951" id="Fill-1" fill="#E9A820" sketch:type="MSShapeGroup" transform="translate(87.056634, 55.422390) scale(-1, -1) translate(-87.056634, -55.422390) "></path>
            <path d="M67.2515752,49.6403895 C65.5935752,63.7033895 69.4645752,76.2533895 78.5975752,87.0383895 C87.6595752,97.7423895 99.4305752,103.39439 113.445575,104.61339 L113.445575,110.43439 C95.8825752,109.01839 81.5275752,101.73839 71.4725752,87.4003895 C58.1635752,68.4203895 57.1085752,48.1643895 68.5355752,28.0373895 C78.2475752,10.9303895 93.7475752,2.22038951 113.407575,0.410389512 L113.407575,18.8493895 C107.779627,19.5246816 107.455576,20.2766081 107.276434,19.5629984 C107.097292,18.8493887 107.530389,7.50009358 107.455575,7.26638951 C89.9355752,9.88338951 70.1265752,25.2613895 67.2515752,49.6403895 Z" id="Fill-1" fill="#E01563" sketch:type="MSShapeGroup" transform="translate(87.056634, 55.422390) scale(-1, -1) translate(-87.056634, -55.422390) "></path>
            <path d="M7.25157521,49.6403895 C5.59357521,63.7033895 9.46457521,76.2533895 18.5975752,87.0383895 C27.6595752,97.7423895 39.4305752,103.39439 53.4455752,104.61339 L53.4455752,110.43439 C35.8825752,109.01839 21.5275752,101.73839 11.4725752,87.4003895 C-1.83642479,68.4203895 -2.89142479,48.1643895 8.53557521,28.0373895 C18.2475752,10.9303895 33.7475752,2.22038951 53.4075752,0.410389512 L53.4075752,18.8493895 C47.7796274,19.5246816 47.4555759,20.2766081 47.2764339,19.5629984 C47.0972919,18.8493887 47.530389,7.50009358 47.4555752,7.26638951 C29.9355752,9.88338951 10.1265752,25.2613895 7.25157521,49.6403895 Z" id="Fill-1" fill="#6ECADC" sketch:type="MSShapeGroup"></path>
        </g>
    </g>
</svg>